<svg xmlns="http://www.w3.org/2000/svg" xmlns:xlink="http://www.w3.org/1999/xlink" width="315" height="315" viewBox="0 0 315 315"><defs><clipPath id="a"><rect width="315" height="315" transform="translate(-0.031 -0.031)" fill="none"/></clipPath></defs><g transform="translate(0.598 0.598)"><rect width="13.184" height="13.184" transform="translate(249.193 249.193)" fill="#fff"/><rect width="13.184" height="13.184" transform="translate(249.193 236.009)" fill="#fff"/><rect width="13.184" height="13.184" transform="translate(249.193 209.64)" fill="#fff"/><rect width="13.184" height="13.184" transform="translate(249.193 183.272)" fill="#fff"/><rect width="13.184" height="13.184" transform="translate(249.193 156.903)" fill="#fff"/><rect width="13.184" height="13.184" transform="translate(249.193 143.719)" fill="#fff"/><rect width="13.184" height="13.184" transform="translate(249.193 117.35)" fill="#fff"/><rect width="13.184" height="13.184" transform="translate(249.193 104.166)" fill="#fff"/><rect width="13.184" height="13.184" transform="translate(249.193 90.982)" fill="#fff"/><rect width="13.184" height="13.184" transform="translate(249.193 77.798)" fill="#fff"/><rect width="13.184" height="13.184" transform="translate(249.193 64.613)" fill="#fff"/><rect width="13.184" height="13.184" transform="translate(249.193 51.429)" fill="#fff"/><rect width="13.184" height="13.184" transform="translate(236.009 236.009)" fill="#fff"/><rect width="13.184" height="13.184" transform="translate(236.009 209.64)" fill="#fff"/><rect width="13.184" height="13.184" transform="translate(236.009 196.456)" fill="#fff"/><rect width="13.184" height="13.184" transform="translate(236.009 183.272)" fill="#fff"/><rect width="13.184" height="13.184" transform="translate(236.009 156.903)" fill="#fff"/><rect width="13.184" height="13.184" transform="translate(236.009 117.35)" fill="#fff"/><rect width="13.184" height="13.184" transform="translate(236.009 51.429)" fill="#fff"/><rect width="13.184" height="13.184" transform="translate(222.825 236.009)" fill="#fff"/><rect width="13.184" height="13.184" transform="translate(222.825 222.824)" fill="#fff"/><rect width="13.184" height="13.184" transform="translate(222.825 196.456)" fill="#fff"/><rect width="13.184" height="13.184" transform="translate(222.825 183.272)" fill="#fff"/><rect width="13.184" height="13.184" transform="translate(222.825 170.087)" fill="#fff"/><rect width="13.184" height="13.184" transform="translate(222.825 156.903)" fill="#fff"/><rect width="13.184" height="13.184" transform="translate(222.825 143.719)" fill="#fff"/><rect width="13.184" height="13.184" transform="translate(222.825 117.35)" fill="#fff"/><rect width="13.184" height="13.184" transform="translate(222.825 90.982)" fill="#fff"/><rect width="13.184" height="13.184" transform="translate(222.825 77.798)" fill="#fff"/><rect width="13.184" height="13.184" transform="translate(222.825 51.429)" fill="#fff"/><rect width="13.184" height="13.184" transform="translate(209.641 249.193)" fill="#fff"/><rect width="13.184" height="13.184" transform="translate(209.641 236.009)" fill="#fff"/><rect width="13.184" height="13.184" transform="translate(209.641 209.64)" fill="#fff"/><rect width="13.184" height="13.184" transform="translate(209.641 170.087)" fill="#fff"/><rect width="13.184" height="13.184" transform="translate(209.641 156.903)" fill="#fff"/><rect width="13.184" height="13.184" transform="translate(209.641 117.35)" fill="#fff"/><rect width="13.184" height="13.184" transform="translate(209.641 90.982)" fill="#fff"/><rect width="13.184" height="13.184" transform="translate(209.641 77.798)" fill="#fff"/><rect width="13.184" height="13.184" transform="translate(209.641 51.429)" fill="#fff"/><rect width="13.184" height="13.184" transform="translate(196.456 236.009)" fill="#fff"/><rect width="13.184" height="13.184" transform="translate(196.456 222.824)" fill="#fff"/><rect width="13.184" height="13.184" transform="translate(196.456 209.64)" fill="#fff"/><rect width="13.184" height="13.184" transform="translate(196.456 196.456)" fill="#fff"/><rect width="13.184" height="13.184" transform="translate(196.456 170.087)" fill="#fff"/><rect width="13.184" height="13.184" transform="translate(196.456 156.903)" fill="#fff"/><rect width="13.184" height="13.184" transform="translate(196.456 143.719)" fill="#fff"/><rect width="13.184" height="13.184" transform="translate(196.456 117.35)" fill="#fff"/><rect width="13.184" height="13.184" transform="translate(196.456 51.429)" fill="#fff"/><rect width="13.184" height="13.184" transform="translate(183.272 249.193)" fill="#fff"/><rect width="13.184" height="13.184" transform="translate(183.272 222.824)" fill="#fff"/><rect width="13.184" height="13.184" transform="translate(183.272 196.456)" fill="#fff"/><rect width="13.184" height="13.184" transform="translate(183.272 183.272)" fill="#fff"/><rect width="13.184" height="13.184" transform="translate(183.272 156.903)" fill="#fff"/><rect width="13.184" height="13.184" transform="translate(183.272 117.35)" fill="#fff"/><rect width="13.184" height="13.184" transform="translate(183.272 104.166)" fill="#fff"/><rect width="13.184" height="13.184" transform="translate(183.272 90.982)" fill="#fff"/><rect width="13.184" height="13.184" transform="translate(183.272 77.798)" fill="#fff"/><rect width="13.184" height="13.184" transform="translate(183.272 64.613)" fill="#fff"/><rect width="13.184" height="13.184" transform="translate(183.272 51.429)" fill="#fff"/><rect width="13.184" height="13.184" transform="translate(170.088 222.824)" fill="#fff"/><rect width="13.184" height="13.184" transform="translate(170.088 209.64)" fill="#fff"/><rect width="13.184" height="13.184" transform="translate(170.088 196.456)" fill="#fff"/><rect width="13.184" height="13.184" transform="translate(156.903 249.193)" fill="#fff"/><rect width="13.184" height="13.184" transform="translate(156.903 236.009)" fill="#fff"/><rect width="13.184" height="13.184" transform="translate(156.903 222.824)" fill="#fff"/><rect width="13.184" height="13.184" transform="translate(156.903 196.456)" fill="#fff"/><rect width="13.184" height="13.184" transform="translate(156.903 170.087)" fill="#fff"/><rect width="13.184" height="13.184" transform="translate(156.903 156.903)" fill="#fff"/><rect width="13.184" height="13.184" transform="translate(156.903 143.719)" fill="#fff"/><rect width="13.184" height="13.184" transform="translate(156.903 130.535)" fill="#fff"/><rect width="13.184" height="13.184" transform="translate(156.903 117.35)" fill="#fff"/><rect width="13.184" height="13.184" transform="translate(156.903 104.166)" fill="#fff"/><rect width="13.184" height="13.184" transform="translate(156.903 90.982)" fill="#fff"/><rect width="13.184" height="13.184" transform="translate(156.903 64.613)" fill="#fff"/><rect width="13.184" height="13.184" transform="translate(156.903 51.429)" fill="#fff"/><rect width="13.184" height="13.184" transform="translate(143.719 236.009)" fill="#fff"/><rect width="13.184" height="13.184" transform="translate(143.719 222.824)" fill="#fff"/><rect width="13.184" height="13.184" transform="translate(143.719 209.64)" fill="#fff"/><rect width="13.184" height="13.184" transform="translate(143.719 183.272)" fill="#fff"/><rect width="13.184" height="13.184" transform="translate(143.719 156.903)" fill="#fff"/><rect width="13.184" height="13.184" transform="translate(143.719 130.535)" fill="#fff"/><rect width="13.184" height="13.184" transform="translate(143.719 104.166)" fill="#fff"/><rect width="13.184" height="13.184" transform="translate(143.719 90.982)" fill="#fff"/><rect width="13.184" height="13.184" transform="translate(143.719 77.798)" fill="#fff"/><rect width="13.184" height="13.184" transform="translate(143.719 64.613)" fill="#fff"/><rect width="13.184" height="13.184" transform="translate(143.719 51.429)" fill="#fff"/><rect width="13.184" height="13.184" transform="translate(130.535 156.903)" fill="#fff"/><rect width="13.184" height="13.184" transform="translate(117.351 249.193)" fill="#fff"/><rect width="13.184" height="13.184" transform="translate(117.351 236.009)" fill="#fff"/><rect width="13.184" height="13.184" transform="translate(117.351 222.824)" fill="#fff"/><rect width="13.184" height="13.184" transform="translate(117.351 209.64)" fill="#fff"/><rect width="13.184" height="13.184" transform="translate(117.351 196.456)" fill="#fff"/><rect width="13.184" height="13.184" transform="translate(117.351 183.272)" fill="#fff"/><rect width="13.184" height="13.184" transform="translate(117.351 143.719)" fill="#fff"/><rect width="13.184" height="13.184" transform="translate(117.351 117.35)" fill="#fff"/><rect width="13.184" height="13.184" transform="translate(117.351 104.166)" fill="#fff"/><rect width="13.184" height="13.184" transform="translate(117.351 90.982)" fill="#fff"/><rect width="13.184" height="13.184" transform="translate(117.351 77.798)" fill="#fff"/><rect width="13.184" height="13.184" transform="translate(117.351 64.613)" fill="#fff"/><rect width="13.184" height="13.184" transform="translate(117.351 51.429)" fill="#fff"/><rect width="13.184" height="13.184" transform="translate(104.166 249.193)" fill="#fff"/><rect width="13.184" height="13.184" transform="translate(104.166 183.272)" fill="#fff"/><rect width="13.184" height="13.184" transform="translate(104.166 156.903)" fill="#fff"/><rect width="13.184" height="13.184" transform="translate(104.166 143.719)" fill="#fff"/><rect width="13.184" height="13.184" transform="translate(104.166 117.35)" fill="#fff"/><rect width="13.184" height="13.184" transform="translate(104.166 51.429)" fill="#fff"/><rect width="13.184" height="13.184" transform="translate(90.982 249.193)" fill="#fff"/><rect width="13.184" height="13.184" transform="translate(90.982 222.824)" fill="#fff"/><rect width="13.184" height="13.184" transform="translate(90.982 209.64)" fill="#fff"/><rect width="13.184" height="13.184" transform="translate(90.982 183.272)" fill="#fff"/><rect width="13.184" height="13.184" transform="translate(90.982 156.903)" fill="#fff"/><rect width="13.184" height="13.184" transform="translate(90.982 143.719)" fill="#fff"/><rect width="13.184" height="13.184" transform="translate(90.982 117.35)" fill="#fff"/><rect width="13.184" height="13.184" transform="translate(90.982 90.982)" fill="#fff"/><rect width="13.184" height="13.184" transform="translate(90.982 77.798)" fill="#fff"/><rect width="13.184" height="13.184" transform="translate(90.982 51.429)" fill="#fff"/><rect width="13.184" height="13.184" transform="translate(77.798 249.193)" fill="#fff"/><rect width="13.184" height="13.184" transform="translate(77.798 222.824)" fill="#fff"/><rect width="13.184" height="13.184" transform="translate(77.798 209.64)" fill="#fff"/><rect width="13.184" height="13.184" transform="translate(77.798 183.272)" fill="#fff"/><rect width="13.184" height="13.184" transform="translate(77.798 143.719)" fill="#fff"/><rect width="13.184" height="13.184" transform="translate(77.798 117.35)" fill="#fff"/><rect width="13.184" height="13.184" transform="translate(77.798 90.982)" fill="#fff"/><rect width="13.184" height="13.184" transform="translate(77.798 77.798)" fill="#fff"/><rect width="13.184" height="13.184" transform="translate(77.798 51.429)" fill="#fff"/><rect width="13.184" height="13.184" transform="translate(64.614 249.193)" fill="#fff"/><rect width="13.184" height="13.184" transform="translate(64.614 183.272)" fill="#fff"/><rect width="13.184" height="13.184" transform="translate(64.614 156.903)" fill="#fff"/><rect width="13.184" height="13.184" transform="translate(64.614 117.35)" fill="#fff"/><rect width="13.184" height="13.184" transform="translate(64.614 51.429)" fill="#fff"/><rect width="13.184" height="13.184" transform="translate(51.429 249.193)" fill="#fff"/><rect width="13.184" height="13.184" transform="translate(51.429 236.009)" fill="#fff"/><rect width="13.184" height="13.184" transform="translate(51.429 222.824)" fill="#fff"/><rect width="13.184" height="13.184" transform="translate(51.429 209.64)" fill="#fff"/><rect width="13.184" height="13.184" transform="translate(51.429 196.456)" fill="#fff"/><rect width="13.184" height="13.184" transform="translate(51.429 183.272)" fill="#fff"/><rect width="13.184" height="13.184" transform="translate(51.429 143.719)" fill="#fff"/><rect width="13.184" height="13.184" transform="translate(51.429 117.35)" fill="#fff"/><rect width="13.184" height="13.184" transform="translate(51.429 104.166)" fill="#fff"/><rect width="13.184" height="13.184" transform="translate(51.429 90.982)" fill="#fff"/><rect width="13.184" height="13.184" transform="translate(51.429 77.798)" fill="#fff"/><rect width="13.184" height="13.184" transform="translate(51.429 64.613)" fill="#fff"/><rect width="13.184" height="13.184" transform="translate(51.429 51.429)" fill="#fff"/><g transform="translate(-0.566 -0.566)"><g transform="translate(0 0)" clip-path="url(#a)"><path d="M1244.4,90.408a9.426,9.426,0,0,1-9.426-9.426V18.851h-62.131a9.426,9.426,0,0,1,0-18.851H1244.4a9.426,9.426,0,0,1,9.425,9.426V80.982a9.426,9.426,0,0,1-9.425,9.426" transform="translate(-941.493 2.605)" fill="#00ffb9"/><path d="M9.426,90.408A9.426,9.426,0,0,1,0,80.982V9.426A9.426,9.426,0,0,1,9.426,0H80.982a9.426,9.426,0,1,1,0,18.851H18.851V80.982a9.426,9.426,0,0,1-9.426,9.426" transform="translate(2.605 2.605)" fill="#00ffb9"/><path d="M80.982,1253.828H9.426A9.426,9.426,0,0,1,0,1244.4v-71.557a9.426,9.426,0,0,1,18.851,0v62.131H80.982a9.426,9.426,0,0,1,0,18.852" transform="translate(2.605 -941.493)" fill="#00ffb9"/><path d="M1244.4,1253.828h-71.557a9.426,9.426,0,0,1,0-18.852h62.131v-62.131a9.426,9.426,0,0,1,18.852,0V1244.4a9.426,9.426,0,0,1-9.425,9.425" transform="translate(-941.493 -941.493)" fill="#00ffb9"/></g></g></g></svg>